<?xml version="1.0" encoding="UTF-8" standalone="no"?>
<!DOCTYPE svg PUBLIC "-//W3C//DTD SVG 1.1//EN"
 "http://www.w3.org/Graphics/SVG/1.1/DTD/svg11.dtd">
<!-- Generated by graphviz version 2.26.3 (20100126.1600)
 -->
<!-- Title: G Pages: 1 -->
<svg width="332pt" height="1022pt"
 viewBox="0.00 0.00 332.00 1022.00" xmlns="http://www.w3.org/2000/svg" xmlns:xlink="http://www.w3.org/1999/xlink">
<g id="graph1" class="graph" transform="scale(1 1) rotate(0) translate(4 1018)">
<title>G</title>
<polygon fill="white" stroke="white" points="-4,5 -4,-1018 329,-1018 329,5 -4,5"/>
<g id="graph2" class="cluster"><title>cluster_Global</title>
<polyline fill="none" stroke="gray" points="20,-8 304,-8 "/>
<path fill="none" stroke="gray" d="M304,-8C310,-8 316,-14 316,-20"/>
<polyline fill="none" stroke="gray" points="316,-20 316,-994 "/>
<path fill="none" stroke="gray" d="M316,-994C316,-1000 310,-1006 304,-1006"/>
<polyline fill="none" stroke="gray" points="304,-1006 20,-1006 "/>
<path fill="none" stroke="gray" d="M20,-1006C14,-1006 8,-1000 8,-994"/>
<polyline fill="none" stroke="gray" points="8,-994 8,-20 "/>
<path fill="none" stroke="gray" d="M8,-20C8,-14 14,-8 20,-8"/>
<text text-anchor="middle" x="162" y="-992.1" font-family="Times Roman,serif" font-size="11.00" fill="gray">Global</text>
</g>
<g id="graph3" class="cluster"><title>cluster_\controller</title>
<polyline fill="none" stroke="gray" points="204,-864 266,-864 "/>
<path fill="none" stroke="gray" d="M266,-864C272,-864 278,-870 278,-876"/>
<polyline fill="none" stroke="gray" points="278,-876 278,-964 "/>
<path fill="none" stroke="gray" d="M278,-964C278,-970 272,-976 266,-976"/>
<polyline fill="none" stroke="gray" points="266,-976 204,-976 "/>
<path fill="none" stroke="gray" d="M204,-976C198,-976 192,-970 192,-964"/>
<polyline fill="none" stroke="gray" points="192,-964 192,-876 "/>
<path fill="none" stroke="gray" d="M192,-876C192,-870 198,-864 204,-864"/>
<text text-anchor="middle" x="235" y="-962.1" font-family="Times Roman,serif" font-size="11.00" fill="gray">controller</text>
</g>
<g id="graph4" class="cluster"><title>cluster_\controller\user</title>
<polyline fill="none" stroke="gray" points="212,-872 258,-872 "/>
<path fill="none" stroke="gray" d="M258,-872C264,-872 270,-878 270,-884"/>
<polyline fill="none" stroke="gray" points="270,-884 270,-934 "/>
<path fill="none" stroke="gray" d="M270,-934C270,-940 264,-946 258,-946"/>
<polyline fill="none" stroke="gray" points="258,-946 212,-946 "/>
<path fill="none" stroke="gray" d="M212,-946C206,-946 200,-940 200,-934"/>
<polyline fill="none" stroke="gray" points="200,-934 200,-884 "/>
<path fill="none" stroke="gray" d="M200,-884C200,-878 206,-872 212,-872"/>
<text text-anchor="middle" x="235" y="-932.1" font-family="Times Roman,serif" font-size="11.00" fill="gray">user</text>
</g>
<g id="graph5" class="cluster"><title>cluster_\libs</title>
<polyline fill="none" stroke="gray" points="28,-60 293,-60 "/>
<path fill="none" stroke="gray" d="M293,-60C299,-60 305,-66 305,-72"/>
<polyline fill="none" stroke="gray" points="305,-72 305,-844 "/>
<path fill="none" stroke="gray" d="M305,-844C305,-850 299,-856 293,-856"/>
<polyline fill="none" stroke="gray" points="293,-856 28,-856 "/>
<path fill="none" stroke="gray" d="M28,-856C22,-856 16,-850 16,-844"/>
<polyline fill="none" stroke="gray" points="16,-844 16,-72 "/>
<path fill="none" stroke="gray" d="M16,-72C16,-66 22,-60 28,-60"/>
<text text-anchor="middle" x="160.5" y="-842.1" font-family="Times Roman,serif" font-size="11.00" fill="gray">libs</text>
</g>
<g id="graph6" class="cluster"><title>cluster_\libs\mysql</title>
<polyline fill="none" stroke="gray" points="190,-752 280,-752 "/>
<path fill="none" stroke="gray" d="M280,-752C286,-752 292,-758 292,-764"/>
<polyline fill="none" stroke="gray" points="292,-764 292,-814 "/>
<path fill="none" stroke="gray" d="M292,-814C292,-820 286,-826 280,-826"/>
<polyline fill="none" stroke="gray" points="280,-826 190,-826 "/>
<path fill="none" stroke="gray" d="M190,-826C184,-826 178,-820 178,-814"/>
<polyline fill="none" stroke="gray" points="178,-814 178,-764 "/>
<path fill="none" stroke="gray" d="M178,-764C178,-758 184,-752 190,-752"/>
<text text-anchor="middle" x="235" y="-812.1" font-family="Times Roman,serif" font-size="11.00" fill="gray">mysql</text>
</g>
<g id="graph7" class="cluster"><title>cluster_\libs\vecni</title>
<polyline fill="none" stroke="gray" points="36,-288 278,-288 "/>
<path fill="none" stroke="gray" d="M278,-288C284,-288 290,-294 290,-300"/>
<polyline fill="none" stroke="gray" points="290,-300 290,-732 "/>
<path fill="none" stroke="gray" d="M290,-732C290,-738 284,-744 278,-744"/>
<polyline fill="none" stroke="gray" points="278,-744 36,-744 "/>
<path fill="none" stroke="gray" d="M36,-744C30,-744 24,-738 24,-732"/>
<polyline fill="none" stroke="gray" points="24,-732 24,-300 "/>
<path fill="none" stroke="gray" d="M24,-300C24,-294 30,-288 36,-288"/>
<text text-anchor="middle" x="157" y="-730.1" font-family="Times Roman,serif" font-size="11.00" fill="gray">vecni</text>
</g>
<g id="graph8" class="cluster"><title>cluster_\libs\vecni\twig</title>
<polyline fill="none" stroke="gray" points="200,-586 270,-586 "/>
<path fill="none" stroke="gray" d="M270,-586C276,-586 282,-592 282,-598"/>
<polyline fill="none" stroke="gray" points="282,-598 282,-702 "/>
<path fill="none" stroke="gray" d="M282,-702C282,-708 276,-714 270,-714"/>
<polyline fill="none" stroke="gray" points="270,-714 200,-714 "/>
<path fill="none" stroke="gray" d="M200,-714C194,-714 188,-708 188,-702"/>
<polyline fill="none" stroke="gray" points="188,-702 188,-598 "/>
<path fill="none" stroke="gray" d="M188,-598C188,-592 194,-586 200,-586"/>
<text text-anchor="middle" x="235" y="-700.1" font-family="Times Roman,serif" font-size="11.00" fill="gray">twig</text>
</g>
<g id="graph9" class="cluster"><title>cluster_\libs\vecni\http</title>
<polyline fill="none" stroke="gray" points="203,-450 267,-450 "/>
<path fill="none" stroke="gray" d="M267,-450C273,-450 279,-456 279,-462"/>
<polyline fill="none" stroke="gray" points="279,-462 279,-566 "/>
<path fill="none" stroke="gray" d="M279,-566C279,-572 273,-578 267,-578"/>
<polyline fill="none" stroke="gray" points="267,-578 203,-578 "/>
<path fill="none" stroke="gray" d="M203,-578C197,-578 191,-572 191,-566"/>
<polyline fill="none" stroke="gray" points="191,-566 191,-462 "/>
<path fill="none" stroke="gray" d="M191,-462C191,-456 197,-450 203,-450"/>
<text text-anchor="middle" x="235" y="-564.1" font-family="Times Roman,serif" font-size="11.00" fill="gray">http</text>
</g>
<g id="graph10" class="cluster"><title>cluster_\libs\scifile</title>
<polyline fill="none" stroke="gray" points="38,-68 285,-68 "/>
<path fill="none" stroke="gray" d="M285,-68C291,-68 297,-74 297,-80"/>
<polyline fill="none" stroke="gray" points="297,-80 297,-268 "/>
<path fill="none" stroke="gray" d="M297,-268C297,-274 291,-280 285,-280"/>
<polyline fill="none" stroke="gray" points="285,-280 38,-280 "/>
<path fill="none" stroke="gray" d="M38,-280C32,-280 26,-274 26,-268"/>
<polyline fill="none" stroke="gray" points="26,-268 26,-80 "/>
<path fill="none" stroke="gray" d="M26,-80C26,-74 32,-68 38,-68"/>
<text text-anchor="middle" x="161.5" y="-266.1" font-family="Times Roman,serif" font-size="11.00" fill="gray">scifile</text>
</g>
<g id="graph11" class="cluster"><title>cluster_\libs\scifile\handler</title>
<polyline fill="none" stroke="gray" points="193,-122 277,-122 "/>
<path fill="none" stroke="gray" d="M277,-122C283,-122 289,-128 289,-134"/>
<polyline fill="none" stroke="gray" points="289,-134 289,-238 "/>
<path fill="none" stroke="gray" d="M289,-238C289,-244 283,-250 277,-250"/>
<polyline fill="none" stroke="gray" points="277,-250 193,-250 "/>
<path fill="none" stroke="gray" d="M193,-250C187,-250 181,-244 181,-238"/>
<polyline fill="none" stroke="gray" points="181,-238 181,-134 "/>
<path fill="none" stroke="gray" d="M181,-134C181,-128 187,-122 193,-122"/>
<text text-anchor="middle" x="235" y="-236.1" font-family="Times Roman,serif" font-size="11.00" fill="gray">handler</text>
</g>
<!-- \\controller\\user\\User -->
<g id="node4" class="node"><title>\\controller\\user\\User</title>
<polygon fill="none" stroke="black" points="262,-916 208,-916 208,-880 262,-880 262,-916"/>
<text text-anchor="middle" x="235" y="-895.1" font-family="Courier,monospace" font-size="11.00">User</text>
</g>
<!-- \\libs\\vecni\\Object -->
<g id="node15" class="node"><title>\\libs\\vecni\\Object</title>
<polygon fill="none" stroke="black" points="89,-440 33,-440 33,-404 89,-404 89,-440"/>
<text text-anchor="middle" x="61" y="-419.1" font-family="Courier,monospace" font-size="11.00">Object</text>
</g>
<!-- \\controller\\user\\User&#45;&gt;\\libs\\vecni\\Object -->
<g id="edge12" class="edge"><title>\\controller\\user\\User&#45;&gt;\\libs\\vecni\\Object</title>
<path fill="none" stroke="black" d="M208.727,-879.742C192.928,-867.434 173.68,-849.855 162,-830 86.6651,-701.94 67.2748,-519.495 62.4934,-450.181"/>
<polygon fill="none" stroke="black" points="65.9769,-449.81 61.8451,-440.054 58.9912,-450.257 65.9769,-449.81"/>
</g>
<!-- \\libs\\mysql\\PDOConnector -->
<g id="node7" class="node"><title>\\libs\\mysql\\PDOConnector</title>
<polygon fill="none" stroke="black" points="284,-796 186,-796 186,-760 284,-760 284,-796"/>
<text text-anchor="middle" x="235" y="-775.1" font-family="Courier,monospace" font-size="11.00">PDOConnector</text>
</g>
<!-- \\libs\\vecni\\twig\\Filter -->
<g id="node10" class="node"><title>\\libs\\vecni\\twig\\Filter</title>
<polygon fill="none" stroke="black" points="263,-684 207,-684 207,-648 263,-648 263,-684"/>
<text text-anchor="middle" x="235" y="-663.1" font-family="Courier,monospace" font-size="11.00">Filter</text>
</g>
<!-- \\libs\\vecni\\twig\\VecniTwig -->
<g id="node11" class="node"><title>\\libs\\vecni\\twig\\VecniTwig</title>
<polygon fill="none" stroke="black" points="273,-630 197,-630 197,-594 273,-594 273,-630"/>
<text text-anchor="middle" x="235" y="-609.1" font-family="Courier,monospace" font-size="11.00">VecniTwig</text>
</g>
<!-- \\libs\\vecni\\http\\Request -->
<g id="node13" class="node"><title>\\libs\\vecni\\http\\Request</title>
<polygon fill="none" stroke="black" points="267,-548 203,-548 203,-512 267,-512 267,-548"/>
<text text-anchor="middle" x="235" y="-527.1" font-family="Courier,monospace" font-size="11.00">Request</text>
</g>
<!-- \\libs\\vecni\\http\\Response -->
<g id="node14" class="node"><title>\\libs\\vecni\\http\\Response</title>
<polygon fill="none" stroke="black" points="270,-494 200,-494 200,-458 270,-458 270,-494"/>
<text text-anchor="middle" x="235" y="-473.1" font-family="Courier,monospace" font-size="11.00">Response</text>
</g>
<!-- \\libs\\vecni\\Session -->
<g id="node16" class="node"><title>\\libs\\vecni\\Session</title>
<polygon fill="none" stroke="black" points="267,-440 203,-440 203,-404 267,-404 267,-440"/>
<text text-anchor="middle" x="235" y="-419.1" font-family="Courier,monospace" font-size="11.00">Session</text>
</g>
<!-- \\libs\\vecni\\Session&#45;&gt;\\libs\\vecni\\Object -->
<g id="edge14" class="edge"><title>\\libs\\vecni\\Session&#45;&gt;\\libs\\vecni\\Object</title>
<path fill="none" stroke="black" d="M202.68,-422C173.541,-422 130.641,-422 99.6874,-422"/>
<polygon fill="none" stroke="black" points="99.6854,-418.5 89.6853,-422 99.6853,-425.5 99.6854,-418.5"/>
</g>
<!-- \\libs\\vecni\\Vecni -->
<g id="node17" class="node"><title>\\libs\\vecni\\Vecni</title>
<polygon fill="none" stroke="black" points="262,-386 208,-386 208,-350 262,-350 262,-386"/>
<text text-anchor="middle" x="235" y="-365.1" font-family="Courier,monospace" font-size="11.00">Vecni</text>
</g>
<!-- \\libs\\vecni\\Vecni&#45;&gt;\\libs\\vecni\\Object -->
<g id="edge16" class="edge"><title>\\libs\\vecni\\Vecni&#45;&gt;\\libs\\vecni\\Object</title>
<path fill="none" stroke="black" d="M207.812,-376.438C178.708,-385.47 132.294,-399.874 99.4544,-410.066"/>
<polygon fill="none" stroke="black" points="98.2458,-406.776 89.7326,-413.083 100.321,-413.462 98.2458,-406.776"/>
</g>
<!-- \\libs\\vecni\\ObjectTrait -->
<g id="node18" class="node"><title>\\libs\\vecni\\ObjectTrait</title>
<polygon fill="none" stroke="black" points="280,-332 190,-332 190,-296 280,-296 280,-332"/>
<text text-anchor="middle" x="235" y="-311.1" font-family="Courier,monospace" font-size="11.00">ObjectTrait</text>
</g>
<!-- \\libs\\scifile\\handler\\ImageUpload -->
<g id="node21" class="node"><title>\\libs\\scifile\\handler\\ImageUpload</title>
<polygon fill="none" stroke="black" points="280,-220 190,-220 190,-184 280,-184 280,-220"/>
<text text-anchor="middle" x="235" y="-199.1" font-family="Courier,monospace" font-size="11.00">ImageUpload</text>
</g>
<!-- \\libs\\scifile\\handler\\GDImage -->
<g id="node22" class="node"><title>\\libs\\scifile\\handler\\GDImage</title>
<polygon fill="none" stroke="black" points="267,-166 203,-166 203,-130 267,-130 267,-166"/>
<text text-anchor="middle" x="235" y="-145.1" font-family="Courier,monospace" font-size="11.00">GDImage</text>
</g>
<!-- \\libs\\scifile\\File -->
<g id="node23" class="node"><title>\\libs\\scifile\\File</title>
<polygon fill="none" stroke="black" points="88,-112 34,-112 34,-76 88,-76 88,-112"/>
<text text-anchor="middle" x="61" y="-91.1" font-family="Courier,monospace" font-size="11.00">File</text>
</g>
<!-- \\libs\\scifile\\Image -->
<g id="node24" class="node"><title>\\libs\\scifile\\Image</title>
<polygon fill="none" stroke="black" points="262,-112 208,-112 208,-76 262,-76 262,-112"/>
<text text-anchor="middle" x="235" y="-91.1" font-family="Courier,monospace" font-size="11.00">Image</text>
</g>
<!-- \\libs\\scifile\\Image&#45;&gt;\\libs\\scifile\\File -->
<g id="edge18" class="edge"><title>\\libs\\scifile\\Image&#45;&gt;\\libs\\scifile\\File</title>
<path fill="none" stroke="black" d="M207.812,-94C178.402,-94 131.317,-94 98.4238,-94"/>
<polygon fill="none" stroke="black" points="98.2832,-90.5001 88.2831,-94 98.2831,-97.5001 98.2832,-90.5001"/>
</g>
<!-- \\LoremIpsumGenerator -->
<g id="node25" class="node"><title>\\LoremIpsumGenerator</title>
<polygon fill="none" stroke="black" points="307,-52 163,-52 163,-16 307,-16 307,-52"/>
<text text-anchor="middle" x="235" y="-31.1" font-family="Courier,monospace" font-size="11.00">LoremIpsumGenerator</text>
</g>
</g>
</svg>
