<?xml version="1.0" encoding="UTF-8" standalone="no"?>
<!DOCTYPE svg PUBLIC "-//W3C//DTD SVG 1.1//EN"
 "http://www.w3.org/Graphics/SVG/1.1/DTD/svg11.dtd">
<!-- Generated by graphviz version 2.26.3 (20100126.1600)
 -->
<!-- Title: G Pages: 1 -->
<svg width="332pt" height="1022pt"
 viewBox="0.00 0.00 332.00 1022.00" xmlns="http://www.w3.org/2000/svg" xmlns:xlink="http://www.w3.org/1999/xlink">
<g id="graph1" class="graph" transform="scale(1 1) rotate(0) translate(4 1018)">
<title>G</title>
<polygon fill="white" stroke="white" points="-4,5 -4,-1018 329,-1018 329,5 -4,5"/>
<g id="graph2" class="cluster"><title>cluster_Global</title>
<polyline fill="none" stroke="gray" points="20,-8 304,-8 "/>
<path fill="none" stroke="gray" d="M304,-8C310,-8 316,-14 316,-20"/>
<polyline fill="none" stroke="gray" points="316,-20 316,-994 "/>
<path fill="none" stroke="gray" d="M316,-994C316,-1000 310,-1006 304,-1006"/>
<polyline fill="none" stroke="gray" points="304,-1006 20,-1006 "/>
<path fill="none" stroke="gray" d="M20,-1006C14,-1006 8,-1000 8,-994"/>
<polyline fill="none" stroke="gray" points="8,-994 8,-20 "/>
<path fill="none" stroke="gray" d="M8,-20C8,-14 14,-8 20,-8"/>
<text text-anchor="middle" x="162" y="-992.1" font-family="Times Roman,serif" font-size="11.00" fill="gray">Global</text>
</g>
<g id="graph3" class="cluster"><title>cluster_\libs</title>
<polyline fill="none" stroke="gray" points="28,-180 293,-180 "/>
<path fill="none" stroke="gray" d="M293,-180C299,-180 305,-186 305,-192"/>
<polyline fill="none" stroke="gray" points="305,-192 305,-964 "/>
<path fill="none" stroke="gray" d="M305,-964C305,-970 299,-976 293,-976"/>
<polyline fill="none" stroke="gray" points="293,-976 28,-976 "/>
<path fill="none" stroke="gray" d="M28,-976C22,-976 16,-970 16,-964"/>
<polyline fill="none" stroke="gray" points="16,-964 16,-192 "/>
<path fill="none" stroke="gray" d="M16,-192C16,-186 22,-180 28,-180"/>
<text text-anchor="middle" x="160.5" y="-962.1" font-family="Times Roman,serif" font-size="11.00" fill="gray">libs</text>
</g>
<g id="graph4" class="cluster"><title>cluster_\libs\vecni</title>
<polyline fill="none" stroke="gray" points="36,-490 278,-490 "/>
<path fill="none" stroke="gray" d="M278,-490C284,-490 290,-496 290,-502"/>
<polyline fill="none" stroke="gray" points="290,-502 290,-934 "/>
<path fill="none" stroke="gray" d="M290,-934C290,-940 284,-946 278,-946"/>
<polyline fill="none" stroke="gray" points="278,-946 36,-946 "/>
<path fill="none" stroke="gray" d="M36,-946C30,-946 24,-940 24,-934"/>
<polyline fill="none" stroke="gray" points="24,-934 24,-502 "/>
<path fill="none" stroke="gray" d="M24,-502C24,-496 30,-490 36,-490"/>
<text text-anchor="middle" x="157" y="-932.1" font-family="Times Roman,serif" font-size="11.00" fill="gray">vecni</text>
</g>
<g id="graph5" class="cluster"><title>cluster_\libs\vecni\http</title>
<polyline fill="none" stroke="gray" points="203,-788 267,-788 "/>
<path fill="none" stroke="gray" d="M267,-788C273,-788 279,-794 279,-800"/>
<polyline fill="none" stroke="gray" points="279,-800 279,-904 "/>
<path fill="none" stroke="gray" d="M279,-904C279,-910 273,-916 267,-916"/>
<polyline fill="none" stroke="gray" points="267,-916 203,-916 "/>
<path fill="none" stroke="gray" d="M203,-916C197,-916 191,-910 191,-904"/>
<polyline fill="none" stroke="gray" points="191,-904 191,-800 "/>
<path fill="none" stroke="gray" d="M191,-800C191,-794 197,-788 203,-788"/>
<text text-anchor="middle" x="235" y="-902.1" font-family="Times Roman,serif" font-size="11.00" fill="gray">http</text>
</g>
<g id="graph6" class="cluster"><title>cluster_\libs\vecni\twig</title>
<polyline fill="none" stroke="gray" points="200,-652 270,-652 "/>
<path fill="none" stroke="gray" d="M270,-652C276,-652 282,-658 282,-664"/>
<polyline fill="none" stroke="gray" points="282,-664 282,-768 "/>
<path fill="none" stroke="gray" d="M282,-768C282,-774 276,-780 270,-780"/>
<polyline fill="none" stroke="gray" points="270,-780 200,-780 "/>
<path fill="none" stroke="gray" d="M200,-780C194,-780 188,-774 188,-768"/>
<polyline fill="none" stroke="gray" points="188,-768 188,-664 "/>
<path fill="none" stroke="gray" d="M188,-664C188,-658 194,-652 200,-652"/>
<text text-anchor="middle" x="235" y="-766.1" font-family="Times Roman,serif" font-size="11.00" fill="gray">twig</text>
</g>
<g id="graph7" class="cluster"><title>cluster_\libs\mysql</title>
<polyline fill="none" stroke="gray" points="190,-408 280,-408 "/>
<path fill="none" stroke="gray" d="M280,-408C286,-408 292,-414 292,-420"/>
<polyline fill="none" stroke="gray" points="292,-420 292,-470 "/>
<path fill="none" stroke="gray" d="M292,-470C292,-476 286,-482 280,-482"/>
<polyline fill="none" stroke="gray" points="280,-482 190,-482 "/>
<path fill="none" stroke="gray" d="M190,-482C184,-482 178,-476 178,-470"/>
<polyline fill="none" stroke="gray" points="178,-470 178,-420 "/>
<path fill="none" stroke="gray" d="M178,-420C178,-414 184,-408 190,-408"/>
<text text-anchor="middle" x="235" y="-468.1" font-family="Times Roman,serif" font-size="11.00" fill="gray">mysql</text>
</g>
<g id="graph8" class="cluster"><title>cluster_\libs\scifile</title>
<polyline fill="none" stroke="gray" points="38,-188 285,-188 "/>
<path fill="none" stroke="gray" d="M285,-188C291,-188 297,-194 297,-200"/>
<polyline fill="none" stroke="gray" points="297,-200 297,-388 "/>
<path fill="none" stroke="gray" d="M297,-388C297,-394 291,-400 285,-400"/>
<polyline fill="none" stroke="gray" points="285,-400 38,-400 "/>
<path fill="none" stroke="gray" d="M38,-400C32,-400 26,-394 26,-388"/>
<polyline fill="none" stroke="gray" points="26,-388 26,-200 "/>
<path fill="none" stroke="gray" d="M26,-200C26,-194 32,-188 38,-188"/>
<text text-anchor="middle" x="161.5" y="-386.1" font-family="Times Roman,serif" font-size="11.00" fill="gray">scifile</text>
</g>
<g id="graph9" class="cluster"><title>cluster_\libs\scifile\handler</title>
<polyline fill="none" stroke="gray" points="193,-242 277,-242 "/>
<path fill="none" stroke="gray" d="M277,-242C283,-242 289,-248 289,-254"/>
<polyline fill="none" stroke="gray" points="289,-254 289,-358 "/>
<path fill="none" stroke="gray" d="M289,-358C289,-364 283,-370 277,-370"/>
<polyline fill="none" stroke="gray" points="277,-370 193,-370 "/>
<path fill="none" stroke="gray" d="M193,-370C187,-370 181,-364 181,-358"/>
<polyline fill="none" stroke="gray" points="181,-358 181,-254 "/>
<path fill="none" stroke="gray" d="M181,-254C181,-248 187,-242 193,-242"/>
<text text-anchor="middle" x="235" y="-356.1" font-family="Times Roman,serif" font-size="11.00" fill="gray">handler</text>
</g>
<g id="graph10" class="cluster"><title>cluster_\controller</title>
<polyline fill="none" stroke="gray" points="204,-60 266,-60 "/>
<path fill="none" stroke="gray" d="M266,-60C272,-60 278,-66 278,-72"/>
<polyline fill="none" stroke="gray" points="278,-72 278,-160 "/>
<path fill="none" stroke="gray" d="M278,-160C278,-166 272,-172 266,-172"/>
<polyline fill="none" stroke="gray" points="266,-172 204,-172 "/>
<path fill="none" stroke="gray" d="M204,-172C198,-172 192,-166 192,-160"/>
<polyline fill="none" stroke="gray" points="192,-160 192,-72 "/>
<path fill="none" stroke="gray" d="M192,-72C192,-66 198,-60 204,-60"/>
<text text-anchor="middle" x="235" y="-158.1" font-family="Times Roman,serif" font-size="11.00" fill="gray">controller</text>
</g>
<g id="graph11" class="cluster"><title>cluster_\controller\user</title>
<polyline fill="none" stroke="gray" points="212,-68 258,-68 "/>
<path fill="none" stroke="gray" d="M258,-68C264,-68 270,-74 270,-80"/>
<polyline fill="none" stroke="gray" points="270,-80 270,-130 "/>
<path fill="none" stroke="gray" d="M270,-130C270,-136 264,-142 258,-142"/>
<polyline fill="none" stroke="gray" points="258,-142 212,-142 "/>
<path fill="none" stroke="gray" d="M212,-142C206,-142 200,-136 200,-130"/>
<polyline fill="none" stroke="gray" points="200,-130 200,-80 "/>
<path fill="none" stroke="gray" d="M200,-80C200,-74 206,-68 212,-68"/>
<text text-anchor="middle" x="235" y="-128.1" font-family="Times Roman,serif" font-size="11.00" fill="gray">user</text>
</g>
<!-- \\libs\\vecni\\http\\Request -->
<g id="node5" class="node"><title>\\libs\\vecni\\http\\Request</title>
<polygon fill="none" stroke="black" points="267,-886 203,-886 203,-850 267,-850 267,-886"/>
<text text-anchor="middle" x="235" y="-865.1" font-family="Courier,monospace" font-size="11.00">Request</text>
</g>
<!-- \\libs\\vecni\\http\\Response -->
<g id="node6" class="node"><title>\\libs\\vecni\\http\\Response</title>
<polygon fill="none" stroke="black" points="270,-832 200,-832 200,-796 270,-796 270,-832"/>
<text text-anchor="middle" x="235" y="-811.1" font-family="Courier,monospace" font-size="11.00">Response</text>
</g>
<!-- \\libs\\vecni\\twig\\Filter -->
<g id="node8" class="node"><title>\\libs\\vecni\\twig\\Filter</title>
<polygon fill="none" stroke="black" points="263,-750 207,-750 207,-714 263,-714 263,-750"/>
<text text-anchor="middle" x="235" y="-729.1" font-family="Courier,monospace" font-size="11.00">Filter</text>
</g>
<!-- \\libs\\vecni\\twig\\VecniTwig -->
<g id="node9" class="node"><title>\\libs\\vecni\\twig\\VecniTwig</title>
<polygon fill="none" stroke="black" points="273,-696 197,-696 197,-660 273,-660 273,-696"/>
<text text-anchor="middle" x="235" y="-675.1" font-family="Courier,monospace" font-size="11.00">VecniTwig</text>
</g>
<!-- \\libs\\vecni\\Session -->
<g id="node10" class="node"><title>\\libs\\vecni\\Session</title>
<polygon fill="none" stroke="black" points="267,-642 203,-642 203,-606 267,-606 267,-642"/>
<text text-anchor="middle" x="235" y="-621.1" font-family="Courier,monospace" font-size="11.00">Session</text>
</g>
<!-- \\libs\\vecni\\Object -->
<g id="node12" class="node"><title>\\libs\\vecni\\Object</title>
<polygon fill="none" stroke="black" points="89,-588 33,-588 33,-552 89,-552 89,-588"/>
<text text-anchor="middle" x="61" y="-567.1" font-family="Courier,monospace" font-size="11.00">Object</text>
</g>
<!-- \\libs\\vecni\\Session&#45;&gt;\\libs\\vecni\\Object -->
<g id="edge12" class="edge"><title>\\libs\\vecni\\Session&#45;&gt;\\libs\\vecni\\Object</title>
<path fill="none" stroke="black" d="M202.68,-613.97C173.414,-604.887 130.267,-591.497 99.2843,-581.881"/>
<polygon fill="none" stroke="black" points="100.273,-578.524 89.6853,-578.902 98.1986,-585.209 100.273,-578.524"/>
</g>
<!-- \\libs\\vecni\\Vecni -->
<g id="node11" class="node"><title>\\libs\\vecni\\Vecni</title>
<polygon fill="none" stroke="black" points="262,-588 208,-588 208,-552 262,-552 262,-588"/>
<text text-anchor="middle" x="235" y="-567.1" font-family="Courier,monospace" font-size="11.00">Vecni</text>
</g>
<!-- \\libs\\vecni\\Vecni&#45;&gt;\\libs\\vecni\\Object -->
<g id="edge14" class="edge"><title>\\libs\\vecni\\Vecni&#45;&gt;\\libs\\vecni\\Object</title>
<path fill="none" stroke="black" d="M207.812,-570C178.834,-570 132.694,-570 99.8798,-570"/>
<polygon fill="none" stroke="black" points="99.7326,-566.5 89.7326,-570 99.7325,-573.5 99.7326,-566.5"/>
</g>
<!-- \\libs\\vecni\\ObjectTrait -->
<g id="node13" class="node"><title>\\libs\\vecni\\ObjectTrait</title>
<polygon fill="none" stroke="black" points="280,-534 190,-534 190,-498 280,-498 280,-534"/>
<text text-anchor="middle" x="235" y="-513.1" font-family="Courier,monospace" font-size="11.00">ObjectTrait</text>
</g>
<!-- \\libs\\mysql\\PDOConnector -->
<g id="node15" class="node"><title>\\libs\\mysql\\PDOConnector</title>
<polygon fill="none" stroke="black" points="284,-452 186,-452 186,-416 284,-416 284,-452"/>
<text text-anchor="middle" x="235" y="-431.1" font-family="Courier,monospace" font-size="11.00">PDOConnector</text>
</g>
<!-- \\libs\\scifile\\handler\\GDImage -->
<g id="node18" class="node"><title>\\libs\\scifile\\handler\\GDImage</title>
<polygon fill="none" stroke="black" points="267,-340 203,-340 203,-304 267,-304 267,-340"/>
<text text-anchor="middle" x="235" y="-319.1" font-family="Courier,monospace" font-size="11.00">GDImage</text>
</g>
<!-- \\libs\\scifile\\handler\\ImageUpload -->
<g id="node19" class="node"><title>\\libs\\scifile\\handler\\ImageUpload</title>
<polygon fill="none" stroke="black" points="280,-286 190,-286 190,-250 280,-250 280,-286"/>
<text text-anchor="middle" x="235" y="-265.1" font-family="Courier,monospace" font-size="11.00">ImageUpload</text>
</g>
<!-- \\libs\\scifile\\File -->
<g id="node20" class="node"><title>\\libs\\scifile\\File</title>
<polygon fill="none" stroke="black" points="88,-232 34,-232 34,-196 88,-196 88,-232"/>
<text text-anchor="middle" x="61" y="-211.1" font-family="Courier,monospace" font-size="11.00">File</text>
</g>
<!-- \\libs\\scifile\\Image -->
<g id="node21" class="node"><title>\\libs\\scifile\\Image</title>
<polygon fill="none" stroke="black" points="262,-232 208,-232 208,-196 262,-196 262,-232"/>
<text text-anchor="middle" x="235" y="-211.1" font-family="Courier,monospace" font-size="11.00">Image</text>
</g>
<!-- \\libs\\scifile\\Image&#45;&gt;\\libs\\scifile\\File -->
<g id="edge18" class="edge"><title>\\libs\\scifile\\Image&#45;&gt;\\libs\\scifile\\File</title>
<path fill="none" stroke="black" d="M207.812,-214C178.402,-214 131.317,-214 98.4238,-214"/>
<polygon fill="none" stroke="black" points="98.2832,-210.5 88.2831,-214 98.2831,-217.5 98.2832,-210.5"/>
</g>
<!-- \\controller\\user\\User -->
<g id="node24" class="node"><title>\\controller\\user\\User</title>
<polygon fill="none" stroke="black" points="262,-112 208,-112 208,-76 262,-76 262,-112"/>
<text text-anchor="middle" x="235" y="-91.1" font-family="Courier,monospace" font-size="11.00">User</text>
</g>
<!-- \\controller\\user\\User&#45;&gt;\\libs\\vecni\\Object -->
<g id="edge16" class="edge"><title>\\controller\\user\\User&#45;&gt;\\libs\\vecni\\Object</title>
<path fill="none" stroke="black" d="M216.134,-112.313C199.57,-129.404 175.996,-156.359 162,-184 129.35,-248.483 82.8155,-464.337 66.7293,-541.925"/>
<polygon fill="none" stroke="black" points="63.2589,-541.424 64.6661,-551.925 70.1146,-542.838 63.2589,-541.424"/>
</g>
<!-- \\LoremIpsumGenerator -->
<g id="node25" class="node"><title>\\LoremIpsumGenerator</title>
<polygon fill="none" stroke="black" points="307,-52 163,-52 163,-16 307,-16 307,-52"/>
<text text-anchor="middle" x="235" y="-31.1" font-family="Courier,monospace" font-size="11.00">LoremIpsumGenerator</text>
</g>
</g>
</svg>
